Coordinates
version=1
nRows=25
nColumns=33
inDegrees=yes

Units are S.I. units (second, meters, Newtons, ...)
Angles are in degrees.

endheader
time	ground_thorax_rot_x	ground_thorax_rot_y	ground_thorax_rot_z	ground_thorax_tx	ground_thorax_ty	ground_thorax_tz	clav_prot_r	clav_elev_r	scapula_abduction_r	scapula_elevation_r	scapula_upward_rot_r	scapula_winging_r	shoulder_elv_r	plane_of_elev_r	axial_rot_r	elbow_flexion_r	pro_sup_r	wrist_flex_r	wrist_dev_r	clav_prot_l	clav_elev_l	scapula_abduction_l	scapula_elevation_l	scapula_upward_rot_l	scapula_winging_l	shoulder_elv_l	plane_of_elev_l	axial_rot_l	elbow_flexion_l	pro_sup_l	wrist_flex_l	wrist_dev_l	
4.2100	-39.023410	-11.405416	13.342849	-199.621918	822.018993	6.074322	9.134979	-45.000000	39.737611	-45.000000	-42.047193	2781.204147	-2266.171429	147.375036	-113.328201	1103.814946	189.231530	10.167292	5.861014	16.680461	38.865725	-40.104065	-44.999922	-43.229550	-996.004977	2063.478010	138.609156	164.185873	1102.250679	196.026923	-1.125090	-7.493475	
4.2200	-39.086020	-11.432132	13.198268	-195.332075	820.768991	5.907466	9.105186	-45.000000	39.899301	-45.000000	-41.270712	2781.573663	-2266.340031	147.413846	-113.360365	1103.600169	191.747333	9.975342	5.813513	16.792123	39.062066	-40.346421	-44.999861	-42.610487	-996.182736	2063.274701	138.645088	163.939156	1102.085723	198.400864	-1.105597	-7.234677	
4.2300	-39.148392	-11.458664	13.052805	-190.913552	819.325414	5.714450	9.072059	-45.000000	40.060070	-45.000000	-40.476791	2781.957876	-2266.543049	147.460821	-113.365905	1103.352633	194.379218	9.778091	5.771786	16.901143	39.266927	-40.580105	-44.999751	-41.956474	-996.371830	2063.043413	138.683843	163.673993	1101.891396	200.823052	-1.084674	-6.979069	
4.2400	-39.204832	-11.488193	12.915661	-186.383796	817.693742	5.498528	9.036665	-45.000000	40.221293	-45.000000	-39.673873	2782.350549	-2266.779986	147.515117	-113.348001	1103.066411	197.149637	9.577414	5.733487	17.007827	39.469020	-40.808080	-44.999554	-41.308699	-996.577561	2062.795777	138.720264	163.413261	1101.666044	203.342724	-1.051884	-6.731496	
4.2500	-39.251459	-11.520078	12.795560	-181.762417	815.886262	5.264235	8.990324	-45.000000	40.376057	-45.000000	-38.872099	2782.749069	-2267.044196	147.577411	-113.327622	1102.735971	200.128642	9.379518	5.706209	17.124392	39.668617	-41.037899	-44.999201	-40.685605	-996.802222	2062.531131	138.757625	163.167060	1101.407301	206.062074	-0.993587	-6.499032	
4.2600	-39.288432	-11.553561	12.689763	-177.070806	813.921111	5.017763	8.938696	-45.000000	40.528340	-45.000000	-38.073450	2783.152183	-2267.336185	147.645844	-113.334159	1102.354063	203.428719	9.192027	5.695112	17.247031	39.863781	-41.266037	-44.998568	-40.084812	-997.044176	2062.252164	138.796056	162.946354	1101.104550	209.125743	-0.891753	-6.294861	
4.2700	-39.313830	-11.593730	12.602734	-172.329764	811.819580	4.765910	8.889665	-45.000000	40.682867	-45.000000	-37.295297	2783.559949	-2267.646199	147.718981	-113.450518	1101.909931	207.300147	9.035796	5.724377	17.370681	40.064255	-41.489889	-44.997436	-39.499115	-997.288996	2061.953259	138.825425	162.768942	1100.739932	212.815568	-0.715669	-6.150051	
4.2800	-39.330110	-11.637308	12.529544	-167.557049	809.603808	4.515321	8.844221	-45.000000	40.839089	-45.000000	-36.556274	2783.974281	-2267.967564	147.789627	-113.779172	1101.384848	212.070213	8.930748	5.809322	17.494049	40.268246	-41.711218	-44.995406	-38.911842	-997.532181	2061.632478	138.842993	162.682655	1100.287462	217.483117	-0.429331	-6.100063	
4.2900	-39.340776	-11.689808	12.469718	-162.764067	807.293499	4.270490	8.808885	-45.000000	41.000505	-45.000000	-35.865954	2784.398233	-2268.288249	147.849486	-114.563574	1100.714542	218.770452	8.943034	6.024743	17.606372	40.492907	-41.929382	-44.991773	-38.279866	-997.748585	2061.274089	138.820001	162.857359	1099.668355	224.188090	0.057975	-6.250425	
4.3000	-39.354427	-11.742103	12.409013	-157.957048	804.906925	4.034289	8.779541	-45.000000	41.165033	-45.000000	-35.212298	2784.832020	-2268.607573	147.890401	-115.945323	1099.860333	228.017760	9.107369	6.406843	17.708190	40.740452	-42.148961	-44.985259	-37.563564	-997.933791	2060.871079	138.746295	163.428002	1098.832035	233.557063	0.795038	-6.661705	
4.3100	-39.383593	-11.806159	12.354151	-153.138497	802.461814	3.807842	8.755251	-45.000000	41.325109	-45.000000	-34.613475	2785.281521	-2268.897353	147.870196	-118.934413	1098.517146	244.461413	9.697846	7.262855	17.771164	41.053950	-42.370900	-44.973606	-36.595607	-998.012513	2060.370374	138.507924	165.154296	1097.427398	250.299941	2.189071	-7.793733	
4.3200	-39.427677	-11.873063	12.300321	-148.312571	799.979229	3.592457	8.734094	-45.000000	41.475384	-45.000000	-34.067549	2785.742945	-2269.160280	147.792429	-123.239503	1096.798752	266.484382	10.625322	8.496194	17.816035	41.409148	-42.601540	-44.952689	-35.429488	-998.010950	2059.796654	138.139128	167.845536	1095.584631	272.758696	4.084931	-9.505456	
4.3300	-39.481877	-11.937059	12.243540	-143.488471	797.485262	3.389924	8.717681	-45.000000	41.624645	-45.000000	-33.553743	2786.210101	-2269.398173	147.666786	-128.595412	1094.811654	292.640596	11.819847	10.032770	17.847288	41.793346	-42.844156	-44.915339	-34.109096	-997.932410	2059.168392	137.660615	171.303986	1093.425232	299.431915	6.343783	-11.676943	
4.3400	-39.529904	-11.961886	12.154082	-138.685833	795.013577	3.204484	8.706639	-45.000000	41.796058	-45.000000	-32.998035	2786.662512	-2269.642690	147.545958	-133.684938	1092.988522	316.585310	12.923446	11.475220	17.897146	42.146704	-43.107964	-44.848105	-32.826715	-997.856205	2058.558339	137.219120	174.546853	1091.446685	323.822859	8.387963	-13.702737	
4.3500	-39.563613	-11.921849	12.004281	-133.933244	792.602413	3.041802	8.700159	-45.000000	42.020879	-45.000000	-32.329529	2787.084891	-2269.894858	147.439756	-138.370572	1091.379232	337.717843	13.911047	12.788982	17.951139	42.456914	-43.396703	-44.728592	-31.560488	-997.761641	2057.972883	136.830223	177.433378	1089.708412	345.247031	10.155927	-15.523143	
4.3600	-39.560270	-11.766201	11.745544	-129.266247	790.291327	2.908919	8.701826	-45.000000	42.335653	-45.000000	-31.436410	2787.446199	-2270.174471	147.388511	-141.635580	1090.300569	351.355275	14.514525	13.664192	18.002020	42.664946	-43.722071	-44.511931	-30.403496	-997.692538	2057.472482	136.620503	179.194444	1088.577188	358.878660	11.226741	-16.669104	
4.3700	-39.517739	-11.519392	11.399188	-124.720975	788.116566	2.812422	8.712482	-45.000000	42.739193	-45.000000	-30.354876	2787.748087	-2270.464566	147.382998	-143.665299	1089.669680	358.872600	14.818128	14.157346	18.015357	42.747897	-44.062411	-44.194410	-29.346284	-997.615868	2057.056463	136.536752	180.000000	1087.939257	366.077905	11.723763	-17.249210	
4.3800	-39.437651	-11.161424	10.935235	-120.332003	786.110779	2.759625	8.733396	-45.000000	43.232843	-45.000000	-29.011264	2787.976713	-2270.765487	147.418389	-144.612903	1089.405735	361.412742	14.877286	14.328952	17.916131	42.728980	-44.386323	-43.764342	-28.272427	-997.538798	2056.724581	136.580579	180.000000	1087.706901	367.989305	11.755360	-17.349610	
4.3900	-39.340406	-10.770025	10.441513	-116.127548	784.301703	2.757470	8.755918	-45.000000	43.743927	-45.000000	-27.578980	2788.173539	-2271.035464	147.458424	-145.483084	1089.163745	364.193232	14.990982	14.492601	17.714162	42.644315	-44.651460	-43.270803	-27.114227	-997.435669	2056.438469	136.621216	180.000000	1087.473089	369.953675	11.789645	-17.465621	
4.4000	-39.236683	-10.367459	9.953859	-112.128968	782.715859	2.814828	8.770732	-45.000000	44.219344	-45.000000	-26.126601	2788.352399	-2271.270912	147.502906	-146.201171	1088.947900	367.087993	15.145487	14.647573	17.421200	42.530662	-44.843337	-42.746237	-25.909822	-997.351536	2056.205812	136.675983	180.000000	1087.244540	371.899133	11.825916	-17.587906	
4.4100	-39.147140	-10.046683	9.587877	-108.350406	781.375300	2.938530	8.767582	-45.000000	44.580450	-45.000000	-24.897433	2788.560859	-2271.459188	147.554000	-146.656993	1088.776440	369.908120	15.333388	14.772432	17.135306	42.387346	-44.951272	-42.273291	-24.872965	-997.325000	2056.033624	136.709629	180.000000	1087.018030	373.713449	11.852049	-17.705637	
4.4200	-39.088951	-9.778517	9.313901	-104.803455	780.296486	3.132200	8.733835	-45.000000	44.828582	-45.000000	-23.846463	2788.787356	-2271.621217	147.607348	-146.818384	1088.645823	372.581482	15.538719	14.881868	16.849496	42.273955	-44.994272	-41.870398	-23.962466	-997.366890	2055.907883	136.747057	180.000000	1086.799443	375.357860	11.870729	-17.815186	
4.4300	-39.070118	-9.593939	9.171386	-101.500294	779.480383	3.388730	8.667623	-45.000000	44.951287	-45.000000	-23.075071	2789.044994	-2271.755249	147.661252	-146.662115	1088.564492	375.012225	15.753810	14.965457	16.639953	42.180790	-45.000000	-41.566121	-23.280475	-997.469110	2055.822731	136.771596	180.000000	1086.587561	376.782784	11.874792	-17.911280	
4.4400	-39.082888	-9.467050	9.124486	-98.455689	778.914776	3.692536	8.582299	-45.000000	45.000000	-45.000000	-22.533639	2789.290663	-2271.873760	147.689553	-146.218106	1088.527143	377.166148	15.963724	15.027359	16.465393	42.129369	-45.000000	-41.334837	-22.790323	-997.587704	2055.766138	136.779753	180.000000	1086.383950	377.991212	11.872260	-17.991072	
4.4500	-39.123735	-9.401921	9.162065	-95.687793	778.570562	4.016771	8.495438	-45.000000	45.000000	-45.000000	-22.211979	2789.527667	-2271.980483	147.703144	-145.521132	1088.531747	378.990037	16.161512	15.058399	16.339796	42.088276	-45.000000	-41.178877	-22.497689	-997.704171	2055.732118	136.755644	180.000000	1086.183452	378.983155	11.862693	-18.054286	
